<svg width="377" height="38" viewBox="0 0 377 38" fill="none" xmlns="http://www.w3.org/2000/svg">
<path d="M4.032 7.776C3.84 7.104 3.6 6.592 3.312 6.24C3.024 5.856 2.656 5.6 2.208 5.472C1.792 5.312 1.264 5.232 0.624 5.232H0V2.688H16.032V5.232H14.928C13.968 5.232 13.248 5.424 12.768 5.808C12.288 6.16 12.048 6.736 12.048 7.536C12.048 7.696 12.064 7.936 12.096 8.256C12.16 8.544 12.224 8.864 12.288 9.216C12.384 9.536 12.464 9.84 12.528 10.128L15.744 21.216C16 22.016 16.256 22.912 16.512 23.904C16.768 24.864 16.992 25.824 17.184 26.784C17.408 27.712 17.552 28.528 17.616 29.232C17.84 28.208 18.08 27.248 18.336 26.352C18.592 25.424 18.864 24.496 19.152 23.568L25.488 3.024H28.992L35.616 21.36C36 22.352 36.336 23.36 36.624 24.384C36.944 25.408 37.216 26.352 37.44 27.216C37.696 28.048 37.872 28.752 37.968 29.328C38.128 28.56 38.304 27.68 38.496 26.688C38.72 25.696 38.944 24.672 39.168 23.616C39.392 22.528 39.632 21.472 39.888 20.448L42.432 10.08C42.528 9.696 42.624 9.232 42.72 8.688C42.816 8.144 42.864 7.744 42.864 7.488C42.864 6.656 42.608 6.08 42.096 5.76C41.616 5.408 40.848 5.232 39.792 5.232H38.688V2.688H51.216V5.232H50.304C49.696 5.232 49.168 5.328 48.72 5.52C48.272 5.68 47.888 6.032 47.568 6.576C47.248 7.12 46.944 7.92 46.656 8.976L39.216 36.96H33.744L25.68 14.448L18.768 36.96H12.816L4.032 7.776Z" fill="black"/>
<path d="M52.0504 36.96V34.416H52.6264C53.1064 34.416 53.6024 34.352 54.1144 34.224C54.6584 34.064 55.1064 33.76 55.4584 33.312C55.8424 32.864 56.0344 32.192 56.0344 31.296V16.704C56.0344 15.84 55.8424 15.2 55.4584 14.784C55.0744 14.368 54.6104 14.096 54.0664 13.968C53.5544 13.84 53.0744 13.776 52.6264 13.776H52.0504V11.232H63.3304V31.296C63.3304 32.192 63.5064 32.864 63.8584 33.312C64.2424 33.76 64.7064 34.064 65.2504 34.224C65.7944 34.352 66.2904 34.416 66.7384 34.416H67.3144V36.96H52.0504ZM59.4424 6.912C58.2904 6.912 57.3144 6.64 56.5144 6.096C55.7464 5.52 55.3624 4.64 55.3624 3.456C55.3624 2.24 55.7624 1.36 56.5624 0.816001C57.3624 0.272 58.3384 0 59.4904 0C60.5784 0 61.5224 0.272 62.3224 0.816001C63.1544 1.36 63.5704 2.24 63.5704 3.456C63.5704 4.64 63.1544 5.52 62.3224 6.096C61.5224 6.64 60.5624 6.912 59.4424 6.912Z" fill="black"/>
<path d="M68.9254 36.96V34.416H69.5014C69.9814 34.416 70.4774 34.352 70.9894 34.224C71.5334 34.064 71.9814 33.76 72.3334 33.312C72.7174 32.864 72.9094 32.192 72.9094 31.296V5.952C72.9094 5.088 72.7174 4.448 72.3334 4.032C71.9494 3.616 71.4854 3.344 70.9414 3.216C70.4294 3.088 69.9494 3.024 69.5014 3.024H68.9254V0.48H80.2054V31.296C80.2054 32.192 80.3814 32.864 80.7334 33.312C81.1174 33.76 81.5814 34.064 82.1254 34.224C82.6694 34.352 83.1654 34.416 83.6134 34.416H84.1894V36.96H68.9254Z" fill="black"/>
<path d="M85.8004 36.96V34.416H86.3764C86.8564 34.416 87.3524 34.352 87.8644 34.224C88.4084 34.064 88.8564 33.76 89.2084 33.312C89.5924 32.864 89.7844 32.192 89.7844 31.296V5.952C89.7844 5.088 89.5924 4.448 89.2084 4.032C88.8244 3.616 88.3604 3.344 87.8164 3.216C87.3044 3.088 86.8244 3.024 86.3764 3.024H85.8004V0.48H97.0804V31.296C97.0804 32.192 97.2564 32.864 97.6084 33.312C97.9924 33.76 98.4564 34.064 99.0004 34.224C99.5444 34.352 100.04 34.416 100.488 34.416H101.064V36.96H85.8004Z" fill="black"/>
<path d="M102.675 36.96V34.416H103.251C103.731 34.416 104.227 34.352 104.739 34.224C105.283 34.064 105.731 33.76 106.083 33.312C106.467 32.864 106.659 32.192 106.659 31.296V16.704C106.659 15.84 106.467 15.2 106.083 14.784C105.699 14.368 105.235 14.096 104.691 13.968C104.179 13.84 103.699 13.776 103.251 13.776H102.675V11.232H113.955V31.296C113.955 32.192 114.131 32.864 114.483 33.312C114.867 33.76 115.331 34.064 115.875 34.224C116.419 34.352 116.915 34.416 117.363 34.416H117.939V36.96H102.675ZM110.067 6.912C108.915 6.912 107.939 6.64 107.139 6.096C106.371 5.52 105.987 4.64 105.987 3.456C105.987 2.24 106.387 1.36 107.187 0.816001C107.987 0.272 108.963 0 110.115 0C111.203 0 112.147 0.272 112.947 0.816001C113.779 1.36 114.195 2.24 114.195 3.456C114.195 4.64 113.779 5.52 112.947 6.096C112.147 6.64 111.187 6.912 110.067 6.912Z" fill="black"/>
<path d="M128.43 37.44C127.022 37.44 125.742 37.168 124.59 36.624C123.47 36.048 122.574 35.184 121.902 34.032C121.23 32.848 120.894 31.376 120.894 29.616C120.894 27.024 121.79 25.104 123.582 23.856C125.374 22.608 128.062 21.92 131.646 21.792L135.582 21.648V19.008C135.582 17.92 135.518 16.976 135.39 16.176C135.262 15.344 134.99 14.704 134.574 14.256C134.158 13.776 133.502 13.536 132.606 13.536C131.806 13.536 131.166 13.76 130.686 14.208C130.206 14.656 129.87 15.28 129.678 16.08C129.486 16.848 129.39 17.728 129.39 18.72C127.246 18.72 125.63 18.48 124.542 18C123.454 17.52 122.91 16.688 122.91 15.504C122.91 14.32 123.358 13.376 124.254 12.672C125.15 11.968 126.35 11.456 127.854 11.136C129.358 10.784 131.006 10.608 132.798 10.608C136.158 10.608 138.67 11.216 140.334 12.432C142.03 13.648 142.878 15.76 142.878 18.768V31.008C142.878 31.872 142.958 32.56 143.118 33.072C143.31 33.552 143.614 33.904 144.03 34.128C144.478 34.32 145.054 34.416 145.758 34.416H145.95V36.96H137.022L136.014 33.648H135.582C134.878 34.512 134.206 35.232 133.566 35.808C132.958 36.352 132.254 36.752 131.454 37.008C130.654 37.296 129.646 37.44 128.43 37.44ZM131.07 33.936C131.998 33.936 132.798 33.696 133.47 33.216C134.142 32.704 134.654 31.984 135.006 31.056C135.39 30.128 135.582 29.04 135.582 27.792V24.192L133.422 24.336C132.142 24.4 131.134 24.656 130.398 25.104C129.662 25.52 129.134 26.128 128.814 26.928C128.494 27.696 128.334 28.656 128.334 29.808C128.334 30.704 128.43 31.472 128.622 32.112C128.814 32.72 129.118 33.184 129.534 33.504C129.95 33.792 130.462 33.936 131.07 33.936Z" fill="black"/>
<path d="M148.429 36.96V34.416H148.525C149.261 34.416 149.901 34.336 150.445 34.176C151.021 34.016 151.469 33.712 151.789 33.264C152.109 32.784 152.269 32.064 152.269 31.104V16.752C152.269 15.856 152.125 15.184 151.837 14.736C151.549 14.288 151.149 14 150.637 13.872C150.125 13.712 149.517 13.632 148.813 13.632H148.669V11.232H158.749L159.373 14.64H159.613C160.253 13.424 160.941 12.544 161.677 12C162.445 11.424 163.261 11.056 164.125 10.896C165.021 10.704 165.965 10.608 166.957 10.608C168.141 10.608 169.197 10.752 170.125 11.04C171.085 11.296 171.901 11.728 172.573 12.336C173.277 12.912 173.821 13.68 174.205 14.64H174.637C175.277 13.424 175.997 12.544 176.797 12C177.597 11.424 178.461 11.056 179.389 10.896C180.317 10.704 181.277 10.608 182.269 10.608C184.733 10.608 186.669 11.344 188.077 12.816C189.485 14.288 190.189 16.64 190.189 19.872V31.008C190.189 32 190.301 32.736 190.525 33.216C190.781 33.696 191.149 34.016 191.629 34.176C192.109 34.336 192.701 34.416 193.405 34.416H193.549V36.96H182.893V21.168C182.893 19.088 182.605 17.488 182.029 16.368C181.453 15.248 180.461 14.688 179.053 14.688C178.061 14.688 177.245 15.008 176.605 15.648C175.997 16.256 175.549 17.088 175.261 18.144C175.005 19.168 174.877 20.304 174.877 21.552V31.008C174.877 31.968 174.989 32.704 175.213 33.216C175.469 33.696 175.837 34.016 176.317 34.176C176.797 34.336 177.389 34.416 178.093 34.416H178.237V36.96H167.581V21.168C167.581 19.088 167.293 17.488 166.717 16.368C166.141 15.248 165.149 14.688 163.741 14.688C162.685 14.688 161.853 15.04 161.245 15.744C160.637 16.416 160.205 17.328 159.949 18.48C159.693 19.6 159.565 20.816 159.565 22.128V31.296C159.565 32.192 159.709 32.864 159.997 33.312C160.285 33.76 160.685 34.064 161.197 34.224C161.709 34.352 162.317 34.416 163.021 34.416H163.165V36.96H148.429Z" fill="black"/>
<path d="M219.953 37.44C217.809 37.44 216.017 37.248 214.577 36.864C213.137 36.448 211.985 35.92 211.121 35.28C210.257 34.608 209.633 33.872 209.249 33.072C208.897 32.272 208.721 31.488 208.721 30.72C208.721 29.632 208.977 28.768 209.489 28.128C210.001 27.456 210.673 26.976 211.505 26.688C212.337 26.4 213.217 26.256 214.145 26.256C214.145 28.08 214.417 29.616 214.961 30.864C215.537 32.08 216.321 33.008 217.313 33.648C218.305 34.256 219.441 34.56 220.721 34.56C222.609 34.56 224.065 34.064 225.089 33.072C226.145 32.08 226.673 30.848 226.673 29.376C226.673 28.288 226.369 27.36 225.761 26.592C225.185 25.792 224.305 25.072 223.121 24.432C221.937 23.76 220.449 23.056 218.657 22.32C216.993 21.648 215.585 20.944 214.433 20.208C213.281 19.472 212.353 18.688 211.649 17.856C210.945 16.992 210.433 16.08 210.113 15.12C209.825 14.128 209.681 13.04 209.681 11.856C209.681 9.904 210.193 8.208 211.217 6.768C212.241 5.328 213.633 4.208 215.393 3.408C217.185 2.608 219.201 2.208 221.441 2.208C223.809 2.208 225.745 2.464 227.249 2.976C228.753 3.456 229.857 4.112 230.561 4.944C231.297 5.776 231.665 6.72 231.665 7.776C231.665 8.896 231.169 9.84 230.177 10.608C229.217 11.376 227.745 11.76 225.761 11.76C225.761 10.864 225.585 9.904 225.233 8.88C224.913 7.856 224.385 6.976 223.649 6.24C222.913 5.504 221.921 5.136 220.673 5.136C219.809 5.136 219.009 5.312 218.273 5.664C217.569 5.984 216.993 6.48 216.545 7.152C216.129 7.792 215.921 8.592 215.921 9.552C215.921 10.448 216.129 11.28 216.545 12.048C216.961 12.816 217.745 13.584 218.897 14.352C220.049 15.088 221.697 15.888 223.841 16.752C226.049 17.648 227.825 18.576 229.169 19.536C230.513 20.496 231.489 21.584 232.097 22.8C232.705 23.984 233.009 25.36 233.009 26.928C233.009 28.976 232.465 30.8 231.377 32.4C230.321 33.968 228.817 35.2 226.865 36.096C224.913 36.992 222.609 37.44 219.953 37.44Z" fill="black"/>
<path d="M236.222 36.96V34.416H236.798C237.278 34.416 237.774 34.352 238.286 34.224C238.83 34.064 239.278 33.76 239.63 33.312C240.014 32.864 240.206 32.192 240.206 31.296V16.704C240.206 15.84 240.014 15.2 239.63 14.784C239.246 14.368 238.782 14.096 238.238 13.968C237.726 13.84 237.246 13.776 236.798 13.776H236.222V11.232H247.502V31.296C247.502 32.192 247.678 32.864 248.03 33.312C248.414 33.76 248.878 34.064 249.422 34.224C249.966 34.352 250.462 34.416 250.91 34.416H251.486V36.96H236.222ZM243.614 6.912C242.462 6.912 241.486 6.64 240.686 6.096C239.918 5.52 239.534 4.64 239.534 3.456C239.534 2.24 239.934 1.36 240.734 0.816001C241.534 0.272 242.51 0 243.662 0C244.75 0 245.694 0.272 246.494 0.816001C247.326 1.36 247.742 2.24 247.742 3.456C247.742 4.64 247.326 5.52 246.494 6.096C245.694 6.64 244.734 6.912 243.614 6.912Z" fill="black"/>
<path d="M253.097 36.96V34.416H253.673C254.153 34.416 254.649 34.352 255.161 34.224C255.705 34.064 256.153 33.76 256.505 33.312C256.889 32.864 257.081 32.192 257.081 31.296V5.952C257.081 5.088 256.889 4.448 256.505 4.032C256.121 3.616 255.657 3.344 255.113 3.216C254.601 3.088 254.121 3.024 253.673 3.024H253.097V0.48H264.377V31.296C264.377 32.192 264.553 32.864 264.905 33.312C265.289 33.76 265.753 34.064 266.297 34.224C266.841 34.352 267.337 34.416 267.785 34.416H268.361V36.96H253.097Z" fill="black"/>
<path d="M272.996 16.08C272.772 15.472 272.5 15.008 272.18 14.688C271.86 14.336 271.444 14.096 270.932 13.968C270.452 13.84 269.86 13.776 269.156 13.776V11.232H284.036V13.776H282.02C281.54 13.776 281.156 13.904 280.868 14.16C280.58 14.416 280.436 14.8 280.436 15.312C280.436 15.696 280.484 16.08 280.58 16.464C280.676 16.848 280.772 17.168 280.868 17.424L284.084 26.496C284.34 27.168 284.58 27.872 284.804 28.608C285.028 29.312 285.22 30 285.38 30.672C285.572 31.344 285.716 31.952 285.812 32.496C285.908 31.984 286.036 31.424 286.196 30.816C286.356 30.176 286.516 29.568 286.676 28.992C286.868 28.384 287.028 27.872 287.156 27.456L290.42 17.808C290.58 17.36 290.708 16.912 290.804 16.464C290.9 16.016 290.948 15.584 290.948 15.168C290.948 14.624 290.772 14.256 290.42 14.064C290.068 13.872 289.62 13.776 289.076 13.776H287.684V11.232H298.244V13.776H297.284C296.868 13.776 296.484 13.856 296.132 14.016C295.812 14.176 295.492 14.512 295.172 15.024C294.884 15.504 294.548 16.256 294.164 17.28L287.204 36.96H280.868L272.996 16.08Z" fill="black"/>
<path d="M307.962 37.44C306.554 37.44 305.274 37.168 304.122 36.624C303.002 36.048 302.106 35.184 301.434 34.032C300.762 32.848 300.426 31.376 300.426 29.616C300.426 27.024 301.322 25.104 303.114 23.856C304.906 22.608 307.594 21.92 311.178 21.792L315.114 21.648V19.008C315.114 17.92 315.05 16.976 314.922 16.176C314.794 15.344 314.522 14.704 314.106 14.256C313.69 13.776 313.034 13.536 312.138 13.536C311.338 13.536 310.698 13.76 310.218 14.208C309.738 14.656 309.402 15.28 309.21 16.08C309.018 16.848 308.922 17.728 308.922 18.72C306.778 18.72 305.162 18.48 304.074 18C302.986 17.52 302.442 16.688 302.442 15.504C302.442 14.32 302.89 13.376 303.786 12.672C304.682 11.968 305.882 11.456 307.386 11.136C308.89 10.784 310.538 10.608 312.33 10.608C315.69 10.608 318.202 11.216 319.866 12.432C321.562 13.648 322.41 15.76 322.41 18.768V31.008C322.41 31.872 322.49 32.56 322.65 33.072C322.842 33.552 323.146 33.904 323.562 34.128C324.01 34.32 324.586 34.416 325.29 34.416H325.482V36.96H316.554L315.546 33.648H315.114C314.41 34.512 313.738 35.232 313.098 35.808C312.49 36.352 311.786 36.752 310.986 37.008C310.186 37.296 309.178 37.44 307.962 37.44ZM310.602 33.936C311.53 33.936 312.33 33.696 313.002 33.216C313.674 32.704 314.186 31.984 314.538 31.056C314.922 30.128 315.114 29.04 315.114 27.792V24.192L312.954 24.336C311.674 24.4 310.666 24.656 309.93 25.104C309.194 25.52 308.666 26.128 308.346 26.928C308.026 27.696 307.866 28.656 307.866 29.808C307.866 30.704 307.962 31.472 308.154 32.112C308.346 32.72 308.65 33.184 309.066 33.504C309.482 33.792 309.994 33.936 310.602 33.936Z" fill="black"/>
<path d="M352.444 23.78L374.384 14.16L375.564 16.76L353.644 26.5L352.444 23.78ZM353.184 33.06L375.124 23.44L376.304 26.04L354.364 35.78L353.184 33.06ZM352.444 6.5L353.644 3.78L375.564 13.54V16.76L374.384 16.14L352.444 6.5Z" fill="#2990E5"/>
</svg>
